<svg xmlns="http://www.w3.org/2000/svg" xmlns:xlink="http://www.w3.org/1999/xlink" version="1.1" x="0px" y="0px" viewBox="0 0 100 100" enable-background="new 0 0 100 100" xml:space="preserve">
  <path fill="#6495ed" d="M80.378,29.637c-0.686-0.468-16.862-11.455-23.326-11.455c-2.878,0-5.329,0.903-6.927,2.516  c-1.598-1.612-4.049-2.516-6.927-2.516c-6.464,0-22.641,10.987-23.326,11.455c-0.231,0.158-0.387,0.406-0.427,0.684  c-0.039,0.278,0.039,0.56,0.217,0.776c0.397,0.485,9.094,10.842,25.243,12.776v6.851H31.722c-2.974,0-5.394,2.42-5.394,5.394  c0,1.815,0.908,3.417,2.287,4.396c-1.379,0.978-2.287,2.579-2.287,4.395c0,2.13,1.251,3.959,3.046,4.836  c-0.069,0.063-0.148,0.111-0.215,0.179c-1.013,1.024-1.565,2.383-1.557,3.823c0.009,1.441,0.578,2.793,1.603,3.807  c1.017,1.005,2.361,1.557,3.792,1.557c0.012,0,0.022,0,0.034,0l4.232-0.035c0.756,2.077,3.412,8.261,8.282,8.261  c0.553,0,1-0.447,1-1s-0.447-1-1-1c-3.525,0-5.959-5.427-6.6-7.518c-0.091-0.294-0.309-0.504-0.571-0.615  c-0.142-0.078-0.297-0.134-0.47-0.134c-0.003,0-0.006,0-0.009,0l-4.88,0.041c-0.922-0.019-1.761-0.343-2.405-0.979  c-0.646-0.638-1.003-1.488-1.009-2.396c-0.006-0.906,0.343-1.761,0.979-2.406c0.638-0.645,1.487-1.003,2.394-1.008  c0.026,0,0.049-0.014,0.075-0.016h8.718c0.553,0,1-0.447,1-1s-0.447-1-1-1H31.722c-1.871,0-3.394-1.523-3.394-3.396  c0-1.872,1.522-3.395,3.394-3.395h10.047c0.553,0,1-0.447,1-1s-0.447-1-1-1H31.722c-1.871,0-3.394-1.523-3.394-3.396  c0-1.871,1.522-3.394,3.394-3.394h14.184c0.553,0,1-0.447,1-1V29.22c0-2.606,1.527-4.571,3.554-4.571  c2.211,0,3.479,1.394,3.479,3.824v25.387c0,0.045,0.003,0.09,0.009,0.135l4.281,31.475c0.068,0.502,0.497,0.865,0.99,0.865  c0.045,0,0.09-0.003,0.136-0.009c0.547-0.075,0.931-0.579,0.856-1.126l-4.272-31.407V43.8c15.77-2.112,24.257-12.224,24.649-12.703  c0.178-0.217,0.256-0.498,0.217-0.776C80.765,30.043,80.609,29.795,80.378,29.637z"/>
  <!-- "quiet" by mungang kim, KR - from the Noun Project -->
</svg>
